<svg width="64" height="64" viewBox="0 0 64 64" fill="none" xmlns="http://www.w3.org/2000/svg">
<g filter="url(#filter0_d_406_468)">
<circle cx="32" cy="32" r="24" fill="#CDE7FF"/>
</g>
<circle cx="32" cy="32.0003" r="19.6721" fill="#0084FF"/>
<path d="M36.3479 30.9116C36.7298 30.9116 37.0395 30.6036 37.0395 30.2236C37.0395 29.8437 36.7298 29.5356 36.3479 29.5356C35.9659 29.5356 35.6563 29.8437 35.6563 30.2236C35.6563 30.6036 35.9659 30.9116 36.3479 30.9116Z" fill="white"/>
<path d="M37.9385 24.3759H37.0394V23.688C37.0394 23.308 36.7298 23 36.3478 23C35.9659 23 35.6562 23.308 35.6562 23.688V24.3759H32.5095V23.688C32.5095 23.308 32.1998 23 31.8179 23C31.4359 23 31.1263 23.308 31.1263 23.688V24.3759H28.0141V23.688C28.0141 23.308 27.7045 23 27.3225 23C26.9405 23 26.6309 23.308 26.6309 23.688V24.3759H25.7664C24.241 24.3759 23 25.6104 23 27.1278V37.8599C23 39.3773 24.241 40.6117 25.7664 40.6117H31.0571C31.4391 40.6117 31.7487 40.3037 31.7487 39.9238C31.7487 39.5438 31.4391 39.2358 31.0571 39.2358H25.7664C25.0037 39.2358 24.3832 38.6186 24.3832 37.8599V27.1278C24.3832 26.3691 25.0037 25.7518 25.7664 25.7518H26.6309V26.4398C26.6309 26.8198 26.9405 27.1278 27.3225 27.1278C27.7045 27.1278 28.0141 26.8198 28.0141 26.4398V25.7518H31.1263V26.4398C31.1263 26.8198 31.4359 27.1278 31.8179 27.1278C32.1998 27.1278 32.5095 26.8198 32.5095 26.4398V25.7518H35.6562V26.4398C35.6562 26.8198 35.9659 27.1278 36.3478 27.1278C36.7298 27.1278 37.0394 26.8198 37.0394 26.4398V25.7518H37.9385C38.7012 25.7518 39.3217 26.3691 39.3217 27.1278V31.0491C39.3217 31.4291 39.6313 31.7371 40.0133 31.7371C40.3953 31.7371 40.7049 31.4291 40.7049 31.0491V27.1278C40.7049 25.6104 39.4639 24.3759 37.9385 24.3759Z" fill="white"/>
<path d="M36.5208 32.2876C34.2136 32.2876 32.3366 34.1547 32.3366 36.4497C32.3366 38.7448 34.2136 40.6119 36.5208 40.6119C38.8279 40.6119 40.7049 38.7448 40.7049 36.4497C40.7049 34.1547 38.8279 32.2876 36.5208 32.2876ZM36.5208 39.236C34.9763 39.236 33.7198 37.9861 33.7198 36.4497C33.7198 34.9134 34.9763 33.6635 36.5208 33.6635C38.0652 33.6635 39.3217 34.9134 39.3217 36.4497C39.3217 37.9861 38.0652 39.236 36.5208 39.236Z" fill="white"/>
<path d="M37.5236 35.7619H37.2124V35.0395C37.2124 34.6596 36.9027 34.3516 36.5208 34.3516C36.1388 34.3516 35.8292 34.6596 35.8292 35.0395V36.4498C35.8292 36.8298 36.1388 37.1378 36.5208 37.1378H37.5236C37.9055 37.1378 38.2152 36.8298 38.2152 36.4498C38.2152 36.0699 37.9055 35.7619 37.5236 35.7619Z" fill="white"/>
<path d="M33.3394 30.9116C33.7214 30.9116 34.031 30.6036 34.031 30.2236C34.031 29.8437 33.7214 29.5356 33.3394 29.5356C32.9575 29.5356 32.6478 29.8437 32.6478 30.2236C32.6478 30.6036 32.9575 30.9116 33.3394 30.9116Z" fill="white"/>
<path d="M30.331 33.9042C30.7129 33.9042 31.0226 33.5962 31.0226 33.2163C31.0226 32.8363 30.7129 32.5283 30.331 32.5283C29.949 32.5283 29.6394 32.8363 29.6394 33.2163C29.6394 33.5962 29.949 33.9042 30.331 33.9042Z" fill="white"/>
<path d="M27.3225 30.9116C27.7045 30.9116 28.0141 30.6036 28.0141 30.2236C28.0141 29.8437 27.7045 29.5356 27.3225 29.5356C26.9405 29.5356 26.6309 29.8437 26.6309 30.2236C26.6309 30.6036 26.9405 30.9116 27.3225 30.9116Z" fill="white"/>
<path d="M27.3225 33.9042C27.7045 33.9042 28.0141 33.5962 28.0141 33.2163C28.0141 32.8363 27.7045 32.5283 27.3225 32.5283C26.9405 32.5283 26.6309 32.8363 26.6309 33.2163C26.6309 33.5962 26.9405 33.9042 27.3225 33.9042Z" fill="white"/>
<path d="M27.3225 36.8969C27.7045 36.8969 28.0141 36.5889 28.0141 36.209C28.0141 35.829 27.7045 35.521 27.3225 35.521C26.9405 35.521 26.6309 35.829 26.6309 36.209C26.6309 36.5889 26.9405 36.8969 27.3225 36.8969Z" fill="white"/>
<path d="M30.331 36.8969C30.7129 36.8969 31.0226 36.5889 31.0226 36.209C31.0226 35.829 30.7129 35.521 30.331 35.521C29.949 35.521 29.6394 35.829 29.6394 36.209C29.6394 36.5889 29.949 36.8969 30.331 36.8969Z" fill="white"/>
<path d="M30.331 30.9116C30.7129 30.9116 31.0226 30.6036 31.0226 30.2236C31.0226 29.8437 30.7129 29.5356 30.331 29.5356C29.949 29.5356 29.6394 29.8437 29.6394 30.2236C29.6394 30.6036 29.949 30.9116 30.331 30.9116Z" fill="white"/>
<defs>
<filter id="filter0_d_406_468" x="0" y="0" width="64" height="64" filterUnits="userSpaceOnUse" color-interpolation-filters="sRGB">
<feFlood flood-opacity="0" result="BackgroundImageFix"/>
<feColorMatrix in="SourceAlpha" type="matrix" values="0 0 0 0 0 0 0 0 0 0 0 0 0 0 0 0 0 0 127 0" result="hardAlpha"/>
<feMorphology radius="1" operator="dilate" in="SourceAlpha" result="effect1_dropShadow_406_468"/>
<feOffset/>
<feGaussianBlur stdDeviation="3.5"/>
<feComposite in2="hardAlpha" operator="out"/>
<feColorMatrix type="matrix" values="0 0 0 0 0.803922 0 0 0 0 0.905882 0 0 0 0 1 0 0 0 1 0"/>
<feBlend mode="normal" in2="BackgroundImageFix" result="effect1_dropShadow_406_468"/>
<feBlend mode="normal" in="SourceGraphic" in2="effect1_dropShadow_406_468" result="shape"/>
</filter>
</defs>
</svg>
