<svg width="46" height="46" viewBox="0 0 46 46" fill="none" xmlns="http://www.w3.org/2000/svg">
<path d="M38.3333 44.0835H7.66667C5.02454 44.0835 2.875 41.934 2.875 39.2918V18.9752C2.875 17.5118 3.5305 16.1481 4.67283 15.2338L20.0062 2.96718C21.7685 1.55651 24.2305 1.55651 25.9929 2.96718L41.3262 15.2338C42.4685 16.1481 43.124 17.5108 43.124 18.9752V39.2918C43.124 41.934 40.9755 44.0835 38.3333 44.0835Z" fill="url(#paint0_linear_406_830)"/>
<path d="M37.375 36.4167H8.62501C8.09601 36.4167 7.66667 35.9873 7.66667 35.4583V8.625C7.66667 7.03992 8.95659 5.75 10.5417 5.75H35.4583C37.0434 5.75 38.3333 7.03992 38.3333 8.625V35.4583C38.3333 35.9873 37.904 36.4167 37.375 36.4167Z" fill="url(#paint1_linear_406_830)"/>
<path d="M26.9483 22.8649C27.4016 22.5918 27.5482 22.0034 27.2751 21.5491C27.001 21.0949 26.4117 20.9502 25.9593 21.2223C25.069 21.759 24.0455 22.0417 22.999 22.0417C19.8279 22.0417 17.249 19.4628 17.249 16.2917C17.249 13.1206 19.8279 10.5417 22.999 10.5417C26.1702 10.5417 28.749 13.1206 28.749 16.3185C28.7442 17.343 27.8204 18.2093 26.7308 18.2093C26.4797 18.2093 26.2459 18.1087 26.0724 17.9266C25.8999 17.7445 25.8117 17.5069 25.8252 17.2548L25.9708 14.4757C25.9977 13.9534 25.807 13.4359 25.4466 13.0564C25.0863 12.6769 24.5803 12.4593 24.057 12.4593H23.6296C21.2788 12.4593 19.2654 14.3693 19.1427 16.7249C19.0957 17.6267 19.4072 18.4786 20.0205 19.1245C20.6329 19.7705 21.4676 20.126 22.3704 20.126C23.2425 20.126 24.0494 19.781 24.6694 19.228C24.6742 19.2338 24.678 19.2405 24.6828 19.2462C25.2128 19.805 25.9593 20.126 26.7308 20.127C28.8909 20.127 30.6571 18.423 30.6667 16.2936C30.6667 12.0664 27.2272 8.62695 23 8.62695C18.7728 8.62695 15.3333 12.0664 15.3333 16.2936C15.3333 20.5208 18.7728 23.9603 23 23.9603C24.3944 23.9603 25.76 23.5817 26.9483 22.8668V22.8649ZM23.9344 16.721V16.7249C23.8912 17.5289 23.1754 18.2074 22.3704 18.2074C21.9985 18.2074 21.6574 18.0637 21.4111 17.804C21.1638 17.5433 21.0383 17.1954 21.0575 16.8159C21.1265 15.4925 22.3052 14.375 23.6306 14.375H24.058L23.9344 16.721Z" fill="url(#paint2_linear_406_830)"/>
<path d="M25.9948 30.5822C24.2583 31.9727 21.7398 31.9727 20.0052 30.5822L3.23533 17.1646C3.00437 17.7319 2.875 18.3423 2.875 18.9748V39.2915C2.875 41.9336 5.02454 44.0832 7.66667 44.0832H38.3333C40.9755 44.0832 43.125 41.9336 43.125 39.2915V18.9748C43.125 18.3423 42.9956 17.7319 42.7647 17.1646L25.9948 30.5822Z" fill="url(#paint3_linear_406_830)"/>
<path d="M25.9948 28.0024C24.2583 26.6118 21.7398 26.6118 20.0052 28.0024L3.34746 41.3299C4.11604 42.9514 5.75671 44.0832 7.66667 44.0832H38.3333C40.2433 44.0832 41.884 42.9514 42.6525 41.3299L25.9948 28.0024Z" fill="url(#paint4_linear_406_830)"/>
<defs>
<linearGradient id="paint0_linear_406_830" x1="23" y1="4.0961" x2="23" y2="29.2725" gradientUnits="userSpaceOnUse">
<stop stop-color="#FD9B02"/>
<stop offset="1" stop-color="#FF7302"/>
</linearGradient>
<linearGradient id="paint1_linear_406_830" x1="23" y1="5.8535" x2="23" y2="29.5953" gradientUnits="userSpaceOnUse">
<stop stop-color="#EDF1F2"/>
<stop offset="0.336" stop-color="#E9EDEE"/>
<stop offset="0.636" stop-color="#DEE2E3"/>
<stop offset="0.921" stop-color="#CCD1D2"/>
<stop offset="1" stop-color="#C6CBCC"/>
</linearGradient>
<linearGradient id="paint2_linear_406_830" x1="16.0569" y1="9.34858" x2="28.5162" y2="21.8079" gradientUnits="userSpaceOnUse">
<stop stop-color="#4793EB"/>
<stop offset="1" stop-color="#2367EC"/>
</linearGradient>
<linearGradient id="paint3_linear_406_830" x1="-6.1065" y1="-3.69549" x2="33.0079" y2="40.6936" gradientUnits="userSpaceOnUse">
<stop stop-color="#FED200"/>
<stop offset="1" stop-color="#F59815"/>
</linearGradient>
<linearGradient id="paint4_linear_406_830" x1="14.8187" y1="27.574" x2="33.9365" y2="59.7663" gradientUnits="userSpaceOnUse">
<stop stop-color="#FED200"/>
<stop offset="1" stop-color="#F59815"/>
</linearGradient>
</defs>
</svg>
