<svg width="64" height="64" viewBox="0 0 64 64" fill="none" xmlns="http://www.w3.org/2000/svg">
<g filter="url(#filter0_d_406_515)">
<circle cx="32" cy="32" r="24" fill="#D7F3F0"/>
</g>
<circle cx="32" cy="32.0003" r="19.6721" fill="#33C1B5"/>
<path d="M35.419 33.1963C37.5984 29.6085 37.3244 30.0561 37.3872 29.9626C38.1806 28.7885 38.6 27.4066 38.6 25.9663C38.6 22.1466 35.6456 19 32 19C28.3663 19 25.4 22.1404 25.4 25.9663C25.4 27.4057 25.8282 28.8237 26.6476 30.0137L28.5809 33.1963C26.5139 33.5296 23 34.5227 23 36.7094C23 37.5066 23.4959 38.6426 25.8585 39.5278C27.5082 40.1459 29.6892 40.4863 32 40.4863C36.321 40.4863 41 39.2075 41 36.7094C41 34.5223 37.4902 33.5302 35.419 33.1963ZM27.65 29.3212C27.6434 29.3104 27.6365 29.2998 27.6293 29.2894C26.9474 28.3052 26.6 27.1388 26.6 25.9663C26.6 22.8181 29.0162 20.259 32 20.259C34.9776 20.259 37.4 22.8192 37.4 25.9663C37.4 27.1407 37.0592 28.2675 36.4142 29.2258C36.3564 29.3058 36.6579 28.8143 32 36.4823L27.65 29.3212ZM32 39.2274C27.2802 39.2274 24.2 37.7719 24.2 36.7094C24.2 35.9953 25.7827 34.8212 29.2899 34.3635L31.494 37.992C31.6042 38.1733 31.795 38.2831 32 38.2831C32.205 38.2831 32.3958 38.1733 32.5059 37.992L34.71 34.3635C38.2172 34.8212 39.8 35.9953 39.8 36.7094C39.8 37.7628 36.7475 39.2274 32 39.2274Z" fill="white"/>
<path d="M32 23C30.3458 23 29 24.4119 29 26.1474C29 27.8829 30.3458 29.2948 32 29.2948C33.6542 29.2948 35 27.8829 35 26.1474C35 24.4119 33.6542 23 32 23ZM32 28.0359C31.0075 28.0359 30.2 27.1887 30.2 26.1474C30.2 25.1061 31.0075 24.259 32 24.259C32.9925 24.259 33.8 25.1061 33.8 26.1474C33.8 27.1887 32.9925 28.0359 32 28.0359Z" fill="white"/>
<defs>
<filter id="filter0_d_406_515" x="0" y="0" width="64" height="64" filterUnits="userSpaceOnUse" color-interpolation-filters="sRGB">
<feFlood flood-opacity="0" result="BackgroundImageFix"/>
<feColorMatrix in="SourceAlpha" type="matrix" values="0 0 0 0 0 0 0 0 0 0 0 0 0 0 0 0 0 0 127 0" result="hardAlpha"/>
<feMorphology radius="1" operator="dilate" in="SourceAlpha" result="effect1_dropShadow_406_515"/>
<feOffset/>
<feGaussianBlur stdDeviation="3.5"/>
<feComposite in2="hardAlpha" operator="out"/>
<feColorMatrix type="matrix" values="0 0 0 0 0.803922 0 0 0 0 0.905882 0 0 0 0 1 0 0 0 1 0"/>
<feBlend mode="normal" in2="BackgroundImageFix" result="effect1_dropShadow_406_515"/>
<feBlend mode="normal" in="SourceGraphic" in2="effect1_dropShadow_406_515" result="shape"/>
</filter>
</defs>
</svg>
