<svg width="21" height="22" viewBox="0 0 21 22" fill="none" xmlns="http://www.w3.org/2000/svg">
<path fill-rule="evenodd" clip-rule="evenodd" d="M7.73843 10.9996L4.384 2.6727C4.13456 2.05043 4.4316 1.3416 5.04741 1.08957C5.43042 0.932823 5.84721 0.988636 6.16713 1.20368L19.2053 9.98691C19.7587 10.3598 19.9083 11.1154 19.5393 11.6746C19.4439 11.8193 19.323 11.9366 19.1868 12.0246L6.16713 20.7955C5.61371 21.1683 4.86591 21.0172 4.49692 20.4579C4.25517 20.0915 4.23607 19.6408 4.40733 19.2686L7.73843 10.9996Z" stroke="#020288" stroke-miterlimit="22.9256" stroke-linecap="round" stroke-linejoin="round"/>
<path d="M4.75871 18.356L2.67464 19.7599C2.17972 20.0933 1.51094 19.9582 1.18098 19.4581C0.964761 19.1303 0.947688 18.7272 1.10082 18.3944L4.07985 10.9994L1.07996 3.55257C0.856874 2.99607 1.12253 2.36216 1.67326 2.13676C2.01578 1.99655 2.3885 2.04647 2.67464 2.23883L4.77014 3.65046" stroke="#020288" stroke-miterlimit="22.9256" stroke-linecap="round" stroke-linejoin="round"/>
<path fill-rule="evenodd" clip-rule="evenodd" d="M8.14249 16.5238L16.343 10.9995L8.14249 5.4751L10.3679 10.9995L8.14249 16.5238Z" fill="#FFF69B"/>
</svg>
