<svg width="60" height="60" viewBox="0 0 60 60" fill="none" xmlns="http://www.w3.org/2000/svg">
<g clip-path="url(#clip0_131_294)">
<path d="M57.1875 36.5625H51.5625V33.75C51.5625 32.1994 50.3006 30.9375 48.75 30.9375H39.375C38.5669 30.9375 37.8422 31.2853 37.3284 31.8328L27.1875 30.1434V27.7941C29.985 26.1703 31.875 23.1488 31.875 19.6875H32.8125C34.3631 19.6875 35.625 18.4256 35.625 16.875C35.625 15.3244 34.3631 14.0625 32.8125 14.0625H32.3625L32.8763 12.8709C33.84 10.6388 33.6675 8.06063 32.4169 5.97563C31.6237 4.65375 30.4641 3.61781 29.0616 2.98031L26.445 1.78875C23.3559 0.382502 19.5694 0.794064 16.8534 2.82938L15.375 3.9375L15.3769 3.94031C13.9144 4.32188 12.6234 5.26313 11.8303 6.585C10.7981 8.30625 10.7175 10.4053 11.6147 12.2006L12.5456 14.0625H12.1875C10.6369 14.0625 9.375 15.3244 9.375 16.875C9.375 18.4256 10.6369 19.6875 12.1875 19.6875H13.125C13.125 23.1488 15.015 26.1703 17.8125 27.7941V30.1434L6.42094 32.0419C3.24375 32.5716 0.9375 35.2931 0.9375 38.5153V58.125C0.9375 58.6434 1.3575 59.0625 1.875 59.0625H30.9375H31.875H57.1875C58.2216 59.0625 59.0625 58.2216 59.0625 57.1875V38.4375C59.0625 37.4034 58.2216 36.5625 57.1875 36.5625ZM49.6875 33.75V36.5625H43.7512C43.2487 34.9584 42.1519 33.6253 40.7147 32.8125H48.75C49.2666 32.8125 49.6875 33.2325 49.6875 33.75ZM38.4375 33.9328C39.9141 34.2356 41.1319 35.2275 41.7469 36.5625H38.4375V33.9328ZM33.75 16.875C33.75 17.3916 33.3291 17.8125 32.8125 17.8125H31.875V15.9375H32.8125C33.3291 15.9375 33.75 16.3584 33.75 16.875ZM13.4381 7.54969C14.1506 6.36281 15.4537 5.625 16.8375 5.625C18.3075 5.625 19.6716 6.35531 20.4881 7.57781L20.7825 8.01938L22.3425 6.97969L22.0481 6.53813C21.2025 5.27063 19.9416 4.38 18.5119 3.98438C20.6344 2.66813 23.3841 2.45438 25.6678 3.49406L28.2844 4.68563C29.3391 5.16563 30.2119 5.94469 30.8091 6.93938C31.7503 8.50781 31.8797 10.4475 31.155 12.1275L31.0922 12.2738L29.9016 9.8925C29.7769 9.64406 29.5491 9.46313 29.2781 9.39938C29.0081 9.33469 28.7231 9.39563 28.5 9.56156L27 10.6866C25.71 11.655 24.1116 12.1875 22.5 12.1875C20.8884 12.1875 19.29 11.655 18 10.6875L16.5 9.5625C16.2769 9.39469 15.9909 9.33469 15.7219 9.40032C15.4509 9.46407 15.2231 9.645 15.0984 9.89344L13.8281 12.435L13.2919 11.3625C12.6825 10.1438 12.7369 8.71782 13.4381 7.54969ZM12.1875 17.8125C11.6709 17.8125 11.25 17.3916 11.25 16.875C11.25 16.3584 11.6709 15.9375 12.1875 15.9375H13.125V17.8125H12.1875ZM15 19.6875V14.2838L16.2731 11.7366L16.875 12.1875C18.4875 13.3969 20.4853 14.0625 22.5 14.0625C24.5147 14.0625 26.5125 13.3969 28.125 12.1875L28.7269 11.7366L30 14.2838V19.6875C30 23.8228 26.6353 27.1875 22.5 27.1875C18.3647 27.1875 15 23.8228 15 19.6875ZM22.5 29.0625C23.4797 29.0625 24.4237 28.9106 25.3125 28.6303V30.5494L22.5 33.3619L19.6875 30.5494V28.6303C20.5763 28.9106 21.5203 29.0625 22.5 29.0625ZM22.1972 39.375H22.8028L24.3328 43.2L22.5 51.1434L20.6672 43.2L22.1972 39.375ZM24.2775 35.4872L22.9359 37.5H22.0641L20.7216 35.4872L21.0347 34.5488L21.8372 35.3513C22.02 35.5331 22.26 35.625 22.5 35.625C22.74 35.625 22.98 35.5331 23.1628 35.3503L23.9653 34.5478L24.2775 35.4872ZM12.1875 57.1875V41.25H10.3125V57.1875H2.8125V38.5153C2.8125 36.2147 4.45969 34.2694 6.72937 33.8906L18.4284 31.9416L19.5525 33.0656L18.7978 35.3288C18.7059 35.6034 18.7462 35.9044 18.9075 36.1453L20.5087 38.5472L18.8166 42.7772C18.7453 42.9544 18.7312 43.1494 18.7734 43.3359L21.5859 55.5234C21.6844 55.9491 22.0631 56.25 22.5 56.25C22.9369 56.25 23.3156 55.9491 23.4141 55.5234L26.2266 43.3359C26.2688 43.1503 26.2547 42.9553 26.1834 42.7772L24.4913 38.5472L26.0925 36.1453C26.2528 35.9044 26.2931 35.6034 26.2022 35.3288L25.4475 33.0656L26.5716 31.9416L36.5766 33.6084C36.5747 33.6563 36.5625 33.7013 36.5625 33.75V36.5625H30.9375C29.9034 36.5625 29.0625 37.4034 29.0625 38.4375V57.1875H12.1875ZM31.875 57.1875H30.9375V55.3125H57.1884V57.1875H31.875ZM57.1884 53.4375H30.9375V45.8334C32.13 47.0531 33.7894 47.8125 35.625 47.8125H41.25V48.75C41.25 50.3006 42.5119 51.5625 44.0625 51.5625C45.6131 51.5625 46.875 50.3006 46.875 48.75V47.8125H52.5C54.3356 47.8125 55.9959 47.0522 57.1884 45.8334V53.4375ZM43.125 48.75V44.0625H45V48.75C45 49.2675 44.5791 49.6875 44.0625 49.6875C43.5459 49.6875 43.125 49.2675 43.125 48.75ZM57.1875 41.25C57.1875 43.8347 55.0847 45.9375 52.5 45.9375H46.875V43.125C46.875 42.6066 46.455 42.1875 45.9375 42.1875H42.1875C41.67 42.1875 41.25 42.6066 41.25 43.125V45.9375H35.625C33.0403 45.9375 30.9375 43.8347 30.9375 41.25V38.4375H57.1875V41.25Z" fill="white"/>
</g>
<defs>
<clipPath id="clip0_131_294">
<rect width="60" height="60" fill="white"/>
</clipPath>
</defs>
</svg>
