<svg width="58" height="58" viewBox="0 0 58 58" fill="none" xmlns="http://www.w3.org/2000/svg">
<g clip-path="url(#clip0_131_309)">
<path d="M42.3342 31.6359C33.7443 31.6359 26.7554 24.647 26.7554 16.0571C26.7554 7.46714 33.7443 0.478249 42.3342 0.478249C50.9242 0.478249 57.913 7.46714 57.913 16.0571C57.913 24.647 50.9242 31.6359 42.3342 31.6359ZM42.3342 2.87499C35.0673 2.87499 29.1522 8.78774 29.1522 16.0571C29.1522 23.3264 35.0673 29.2391 42.3342 29.2391C49.6012 29.2391 55.5163 23.3264 55.5163 16.0571C55.5163 8.78774 49.6012 2.87499 42.3342 2.87499Z" fill="white"/>
<path d="M39.9375 22.0489C39.6187 22.0489 39.3144 21.9219 39.0891 21.699L34.2956 16.9055C33.8282 16.4381 33.8282 15.6784 34.2956 15.211C34.763 14.7436 35.5227 14.7436 35.9901 15.211L39.8776 19.0985L47.4225 10.4751C47.8611 9.97413 48.6161 9.9262 49.1122 10.3624C49.6108 10.7986 49.6611 11.556 49.2249 12.0545L40.8363 21.6415C40.6206 21.8907 40.309 22.0369 39.9783 22.0489C39.9639 22.0489 39.9519 22.0489 39.9375 22.0489Z" fill="white"/>
<path d="M47.1277 41.2228H15.9701C15.3997 41.2228 14.9083 40.8202 14.7957 40.2593L10.0022 16.2919C9.93029 15.9396 10.0238 15.5753 10.2491 15.2973C10.4744 15.0193 10.8195 14.8587 11.1766 14.8587H20.7636C21.4251 14.8587 21.9619 15.3956 21.9619 16.0571C21.9619 16.7186 21.4251 17.2554 20.7636 17.2554H12.6386L16.9527 38.8261H46.145L46.8089 35.5066C46.9407 34.8547 47.5974 34.44 48.2182 34.5671C48.8677 34.6965 49.2895 35.3268 49.1601 35.9763L48.3045 40.2593C48.1894 40.8202 47.6981 41.2228 47.1277 41.2228Z" fill="white"/>
<path d="M15.9677 41.2228C15.4093 41.2228 14.9107 40.8297 14.7957 40.2593L8.85418 10.5541C8.52104 8.87882 7.03506 7.66367 5.32858 7.66367L1.59206 7.66846C0.930563 7.66846 0.391296 7.13159 0.391296 6.47009C0.391296 5.80859 0.928166 5.27172 1.58727 5.27172L5.32139 5.26693H5.32858C8.17591 5.26693 10.6469 7.29217 11.2054 10.0844L17.1445 39.7896C17.2763 40.4391 16.8545 41.0694 16.2026 41.1988C16.1259 41.2156 16.0468 41.2228 15.9677 41.2228Z" fill="white"/>
<path d="M51.9212 46.0163H11.1767C9.19455 46.0163 7.58154 44.4033 7.58154 42.4212C7.58154 40.4391 9.19455 38.8261 11.1767 38.8261H15.9701C16.6316 38.8261 17.1685 39.3629 17.1685 40.0244C17.1685 40.6859 16.6316 41.2228 15.9701 41.2228H11.1767C10.5175 41.2228 9.97828 41.7597 9.97828 42.4212C9.97828 43.0827 10.5175 43.6196 11.1767 43.6196H51.9212C52.5827 43.6196 53.1196 44.1564 53.1196 44.8179C53.1196 45.4794 52.5827 46.0163 51.9212 46.0163Z" fill="white"/>
<path d="M19.5652 58C16.9216 58 14.7717 55.8501 14.7717 53.2065C14.7717 50.5629 16.9216 48.413 19.5652 48.413C22.2088 48.413 24.3587 50.5629 24.3587 53.2065C24.3587 55.8501 22.2088 58 19.5652 58ZM19.5652 50.8098C18.2422 50.8098 17.1685 51.8859 17.1685 53.2065C17.1685 54.5271 18.2422 55.6033 19.5652 55.6033C20.8882 55.6033 21.9619 54.5271 21.9619 53.2065C21.9619 51.8859 20.8882 50.8098 19.5652 50.8098Z" fill="white"/>
<path d="M41.1359 58C38.4923 58 36.3424 55.8501 36.3424 53.2065C36.3424 50.5629 38.4923 48.413 41.1359 48.413C43.7795 48.413 45.9294 50.5629 45.9294 53.2065C45.9294 55.8501 43.7795 58 41.1359 58ZM41.1359 50.8098C39.8129 50.8098 38.7391 51.8859 38.7391 53.2065C38.7391 54.5271 39.8129 55.6033 41.1359 55.6033C42.4589 55.6033 43.5326 54.5271 43.5326 53.2065C43.5326 51.8859 42.4589 50.8098 41.1359 50.8098Z" fill="white"/>
</g>
<defs>
<clipPath id="clip0_131_309">
<rect width="57.5217" height="57.5217" fill="white" transform="translate(0.391296 0.478249)"/>
</clipPath>
</defs>
</svg>
