<svg width="64" height="64" viewBox="0 0 64 64" fill="none" xmlns="http://www.w3.org/2000/svg">
<g filter="url(#filter0_d_406_541)">
<circle cx="32" cy="32" r="24" fill="#F4D9E9"/>
</g>
<circle cx="32" cy="32.0003" r="19.6721" fill="#C7378F"/>
<path d="M38.9667 19.0001C38.673 19.0001 38.3793 19.1106 38.1574 19.3313L37.4405 20.0444C37.1266 19.9308 36.759 19.9957 36.5096 20.2439L29.9074 26.8085C29.8637 26.8528 29.8322 26.9074 29.8157 26.9673L29.0824 29.5198C29.0054 29.7936 29.259 30.0458 29.5343 29.9693L32.1002 29.2398C32.1605 29.2232 32.2154 29.1916 32.2599 29.1479L38.6 22.8412L38.6637 22.9039C38.9555 23.1941 38.9555 23.6452 38.6637 23.9354L36.8748 25.7149C36.5076 26.0595 37.0503 26.5964 37.3947 26.2293L39.1808 24.4497C39.7509 23.8827 39.7508 22.9545 39.1808 22.3874L39.059 22.2662C39.1311 22.0691 39.1312 21.8514 39.059 21.6543L39.7766 20.9412C40.2205 20.4997 40.2205 19.7728 39.7766 19.3313C39.5547 19.1105 39.2603 19.0001 38.9667 19.0001ZM38.9682 19.7246C39.0723 19.7246 39.1769 19.7662 39.2597 19.8485C39.4252 20.0132 39.4252 20.2594 39.2597 20.4241L38.6001 21.0802L38.0186 20.5017L38.6774 19.8485C38.7602 19.7662 38.8641 19.7246 38.9682 19.7246ZM37.2401 20.7582L38.3416 21.8539C38.4056 21.9176 38.4056 22.0032 38.3416 22.0669L34.5674 25.8211L33.2526 24.5139L37.0267 20.7582C37.0969 20.6883 37.1896 20.7079 37.2401 20.7582ZM32.7341 25.0297L34.0489 26.3369L32.0015 28.3743L30.6873 27.0671L32.7341 25.0297ZM22.1014 27.0671C21.4984 27.0671 21 27.56 21 28.1599V38.3725C21 38.9724 21.4984 39.4681 22.1014 39.4681H41.9007C42.5038 39.4681 43 38.9724 43 38.3725V28.1599C43 27.56 42.5038 27.0671 41.9007 27.0671H35.2993C34.7994 27.056 34.7994 27.8076 35.2993 27.7965H41.9007C42.1102 27.7965 42.2667 27.9515 42.2667 28.1599V38.3725C42.2667 38.5809 42.1102 38.7387 41.9007 38.7387H22.1014C21.8919 38.7387 21.7333 38.5809 21.7333 38.3725V28.1599C21.7333 27.9515 21.8919 27.7965 22.1014 27.7965H28.3354C28.8353 27.8076 28.8353 27.056 28.3354 27.0671H22.1014ZM30.3493 27.7644L31.3004 28.7105L29.9676 29.0888L30.3493 27.7644ZM24.6624 29.2505C24.4598 29.2532 24.297 29.4173 24.2993 29.6188V30.0377C23.6708 30.2018 23.2007 30.7674 23.2007 31.4417C23.2007 32.2432 23.8617 32.9014 24.6674 32.9014C25.0768 32.9014 25.4007 33.2237 25.4007 33.6309C25.4007 34.0381 25.0768 34.3604 24.6674 34.3604C24.258 34.3604 23.9341 34.0381 23.9341 33.6309C23.9453 33.1336 23.1895 33.1336 23.2007 33.6309C23.2007 34.3053 23.6708 34.8732 24.2993 35.0379V35.4567C24.2993 35.9432 25.0326 35.9432 25.0326 35.4567V35.0386C25.6626 34.8749 26.1348 34.3064 26.1348 33.6309C26.1348 32.8295 25.4731 32.1712 24.6674 32.1712C24.258 32.1712 23.9341 31.849 23.9341 31.4417C23.9341 31.0345 24.258 30.7151 24.6674 30.7151C25.0768 30.7151 25.4007 31.0345 25.4007 31.4417C25.4007 31.9285 26.1348 31.9285 26.1348 31.4417C26.1348 30.7663 25.6626 30.2 25.0326 30.037V29.6188C25.0348 29.4141 24.8681 29.2482 24.6624 29.2505ZM34.2008 30.349V31.8079C34.2015 32.0094 34.3664 32.172 34.5689 32.1712H40.4341C40.6355 32.1705 40.7985 32.0082 40.7993 31.8079V30.349C40.7986 30.1487 40.6355 29.9865 40.4341 29.9857L34.5502 29.9855C34.3433 30.0044 34.2006 30.1615 34.2008 30.349ZM34.9341 30.7151H40.0689V31.4417H34.934L34.9341 30.7151ZM27.9674 31.4417C27.4892 31.4528 27.4892 32.1607 27.9674 32.1712H32.3681C32.8463 32.1602 32.8463 31.4523 32.3681 31.4417H27.9674ZM27.9674 33.6309C27.4675 33.6199 27.4675 34.3714 27.9674 34.3604H37.5C37.9999 34.3714 37.9999 33.6199 37.5 33.6309H27.9674ZM38.9674 33.6309C38.4676 33.6199 38.4676 34.3714 38.9674 34.3604H40.4341C40.934 34.3714 40.934 33.6199 40.4341 33.6309H38.9674ZM37.5595 35.7901C37.1644 35.81 36.7101 35.94 36.2117 36.2375C35.3752 36.7368 34.9166 36.6277 34.609 36.4576C34.3013 36.2876 34.1628 36.0217 34.1628 36.0217C33.9441 35.5852 33.286 35.9115 33.5047 36.3479C33.5047 36.3479 33.735 36.81 34.2523 37.0959C34.7696 37.3818 35.5937 37.4565 36.5905 36.8615C37.4271 36.3623 37.8856 36.4714 38.1933 36.6414C38.501 36.8115 38.6394 37.0774 38.6394 37.0774C38.8485 37.5397 39.5414 37.1946 39.2947 36.7511C39.2947 36.7511 39.0672 36.289 38.5499 36.0031C38.2913 35.8602 37.9546 35.7702 37.5595 35.7901ZM23.1656 36.5495C22.6881 36.583 22.7222 37.2911 23.2007 37.279H30.5334C31.0115 37.268 31.0115 36.5601 30.5334 36.5495H23.2007C23.189 36.5488 23.1773 36.5488 23.1656 36.5495Z" fill="white"/>
<defs>
<filter id="filter0_d_406_541" x="0" y="0" width="64" height="64" filterUnits="userSpaceOnUse" color-interpolation-filters="sRGB">
<feFlood flood-opacity="0" result="BackgroundImageFix"/>
<feColorMatrix in="SourceAlpha" type="matrix" values="0 0 0 0 0 0 0 0 0 0 0 0 0 0 0 0 0 0 127 0" result="hardAlpha"/>
<feMorphology radius="1" operator="dilate" in="SourceAlpha" result="effect1_dropShadow_406_541"/>
<feOffset/>
<feGaussianBlur stdDeviation="3.5"/>
<feComposite in2="hardAlpha" operator="out"/>
<feColorMatrix type="matrix" values="0 0 0 0 0.803922 0 0 0 0 0.905882 0 0 0 0 1 0 0 0 1 0"/>
<feBlend mode="normal" in2="BackgroundImageFix" result="effect1_dropShadow_406_541"/>
<feBlend mode="normal" in="SourceGraphic" in2="effect1_dropShadow_406_541" result="shape"/>
</filter>
</defs>
</svg>
