<svg width="44" height="44" viewBox="0 0 44 44" fill="none" xmlns="http://www.w3.org/2000/svg">
<path d="M11 0C9.4875 0 8.25 1.2375 8.25 2.75V41.25C8.25 42.7625 9.4875 44 11 44H38.5C40.0125 44 41.25 42.7625 41.25 41.25V11L30.25 0H11Z" fill="#E2E5E7"/>
<path d="M33 11H41.25L30.25 0V8.25C30.25 9.7625 31.4875 11 33 11Z" fill="#B0B7BD"/>
<path d="M41.25 19.25L33 11H41.25V19.25Z" fill="#CAD1D8"/>
<path d="M35.75 35.75C35.75 36.5063 35.1312 37.125 34.375 37.125H4.125C3.36875 37.125 2.75 36.5063 2.75 35.75V22C2.75 21.2437 3.36875 20.625 4.125 20.625H34.375C35.1312 20.625 35.75 21.2437 35.75 22V35.75Z" fill="#F15642"/>
<path d="M8.74362 26.052C8.74362 25.689 9.02962 25.293 9.49025 25.293H12.0299C13.4599 25.293 14.7469 26.25 14.7469 28.0842C14.7469 29.8222 13.4599 30.7902 12.0299 30.7902H10.1942V32.2422C10.1942 32.7262 9.88625 32.9998 9.49025 32.9998C9.12725 32.9998 8.74362 32.7262 8.74362 32.2422V26.052ZM10.1942 26.6776V29.4166H12.0299C12.7669 29.4166 13.3499 28.7662 13.3499 28.0842C13.3499 27.3156 12.7669 26.6776 12.0299 26.6776H10.1942Z" fill="white"/>
<path d="M16.9001 33C16.5371 33 16.1411 32.802 16.1411 32.3193V26.0741C16.1411 25.6795 16.5371 25.3921 16.9001 25.3921H19.4178C24.442 25.3921 24.332 33 19.5168 33H16.9001ZM17.5931 26.7341V31.6593H19.4178C22.3864 31.6593 22.5184 26.7341 19.4178 26.7341H17.5931Z" fill="white"/>
<path d="M26.114 26.822V28.5696H28.9176C29.3136 28.5696 29.7096 28.9656 29.7096 29.3492C29.7096 29.7122 29.3136 30.0093 28.9176 30.0093H26.114V32.3179C26.114 32.7029 25.8404 32.9985 25.4554 32.9985C24.9714 32.9985 24.6758 32.7029 24.6758 32.3179V26.0726C24.6758 25.678 24.9728 25.3906 25.4554 25.3906H29.315C29.799 25.3906 30.085 25.678 30.085 26.0726C30.085 26.4246 29.799 26.8206 29.315 26.8206H26.114V26.822Z" fill="white"/>
<path d="M34.375 37.125H8.25V38.5H34.375C35.1313 38.5 35.75 37.8812 35.75 37.125V35.75C35.75 36.5063 35.1313 37.125 34.375 37.125Z" fill="#CAD1D8"/>
</svg>
