<svg width="64" height="64" viewBox="0 0 64 64" fill="none" xmlns="http://www.w3.org/2000/svg">
<g filter="url(#filter0_d_406_525)">
<circle cx="32" cy="32" r="24" fill="#FFF5CD"/>
</g>
<circle cx="32" cy="32.0003" r="19.6721" fill="#DEC14B"/>
<path d="M42.6924 37.9138H42.3205V36.8616C42.3205 36.6917 42.1827 36.5538 42.0129 36.5538H40.9616V35.5016C40.9616 35.3316 40.8239 35.1937 40.6539 35.1937H40.2822V28.4564H40.6539C40.8239 28.4564 40.9616 28.3185 40.9616 28.1485V27.0963H42.0129C42.1829 27.0963 42.3205 26.9584 42.3205 26.7884V25.4284C42.3205 25.2584 42.1829 25.1205 42.0129 25.1205H41.4296L32.6751 19.0547C32.5699 18.9818 32.4303 18.9818 32.3249 19.0547L23.5706 25.1205H22.9871C22.8173 25.1205 22.6795 25.2582 22.6795 25.4284V26.7884C22.6795 26.9584 22.8173 27.0963 22.9871 27.0963H24.0384V28.1485C24.0384 28.3185 24.1762 28.4564 24.3461 28.4564H24.7179V35.1937H24.3461C24.1762 35.1937 24.0384 35.3314 24.0384 35.5016V36.5538H22.9871C22.8173 36.5538 22.6795 36.6917 22.6795 36.8616V37.9138H22.3076C22.1376 37.9138 22 38.0516 22 38.2217V39.5816C22 39.7517 22.1376 39.8895 22.3076 39.8895H42.6924C42.8624 39.8895 43 39.7517 43 39.5816V38.2217C43 38.0517 42.8624 37.9138 42.6924 37.9138ZM40.3463 36.5538H37.5641V35.8094H40.3463V36.5538ZM38.2435 35.1937V28.4564H39.6668V35.1937H38.2435ZM40.3463 27.8406H37.5641V27.0963H40.3463V27.8406ZM37.2565 28.4564H37.6282V35.1937H37.2565C37.0865 35.1937 36.9489 35.3314 36.9489 35.5016V36.5538H34.5064V35.5016C34.5064 35.3314 34.3686 35.1937 34.1988 35.1937H33.8269V28.4564H34.1988C34.3686 28.4564 34.5064 28.3185 34.5064 28.1485V27.0963H36.9489V28.1485C36.9489 28.3185 37.0865 28.4564 37.2565 28.4564ZM31.109 27.0963H33.8912V27.8406H31.109V27.0963ZM31.7883 28.4564H33.2117V35.1937H31.7883V28.4564ZM33.8912 35.8094V36.5538H31.109V35.8094H33.8912ZM23.2947 25.7362H23.6667H28.663C28.8329 25.7362 28.9706 25.5983 28.9706 25.4284C28.9706 25.2582 28.8329 25.1205 28.663 25.1205H24.6514L32.5 19.6823L40.3487 25.1205H29.8934C29.7236 25.1205 29.5858 25.2582 29.5858 25.4284C29.5858 25.5983 29.7236 25.7362 29.8934 25.7362H41.3293H41.7053V26.4806H23.2947V25.7362ZM24.6537 27.0963H27.436V27.8406H24.6537V27.0963ZM26.7565 28.4564V35.1937H25.3332V28.4564H26.7565ZM24.6537 35.8094H27.436V36.5538H24.6537V35.8094ZM27.7436 35.1937H27.3718V28.4564H27.7436C27.9135 28.4564 28.0512 28.3185 28.0512 28.1485V27.0963H30.4938V28.1485C30.4938 28.3185 30.6314 28.4564 30.8014 28.4564H31.1731V35.1937H30.8014C30.6314 35.1937 30.4938 35.3314 30.4938 35.5016V36.5538H28.0512V35.5016C28.0512 35.3314 27.9135 35.1937 27.7436 35.1937ZM23.2947 37.1695H41.7053V37.9138H23.2947V37.1695ZM42.3848 39.2739H22.6152V38.5296H42.3848V39.2739Z" fill="white"/>
<defs>
<filter id="filter0_d_406_525" x="0" y="0" width="64" height="64" filterUnits="userSpaceOnUse" color-interpolation-filters="sRGB">
<feFlood flood-opacity="0" result="BackgroundImageFix"/>
<feColorMatrix in="SourceAlpha" type="matrix" values="0 0 0 0 0 0 0 0 0 0 0 0 0 0 0 0 0 0 127 0" result="hardAlpha"/>
<feMorphology radius="1" operator="dilate" in="SourceAlpha" result="effect1_dropShadow_406_525"/>
<feOffset/>
<feGaussianBlur stdDeviation="3.5"/>
<feComposite in2="hardAlpha" operator="out"/>
<feColorMatrix type="matrix" values="0 0 0 0 0.803922 0 0 0 0 0.905882 0 0 0 0 1 0 0 0 1 0"/>
<feBlend mode="normal" in2="BackgroundImageFix" result="effect1_dropShadow_406_525"/>
<feBlend mode="normal" in="SourceGraphic" in2="effect1_dropShadow_406_525" result="shape"/>
</filter>
</defs>
</svg>
