<svg width="59" height="59" viewBox="0 0 59 59" fill="none" xmlns="http://www.w3.org/2000/svg">
<path d="M57.1488 6.86831L51.7539 1.4735C51.3932 1.11259 50.9328 0.921875 50.4226 0.921875H20.9668C19.9285 0.921875 19.084 1.76654 19.084 2.80457V24.4568C18.7664 24.4388 18.4466 24.4288 18.1245 24.4288C8.84737 24.4288 1.29987 31.9763 1.29987 41.2533C1.29987 50.5306 8.84737 58.0781 18.1245 58.0781C24.0202 58.0781 29.2164 55.0293 32.2217 50.4261H55.8175C56.8556 50.4261 57.7002 49.5814 57.7002 48.5433V8.1995C57.7002 7.68936 57.5095 7.229 57.1488 6.86831ZM51.7423 4.06939L54.5527 6.87972H51.7423V4.06939ZM18.1245 56.2344C9.86397 56.2344 3.14362 49.514 3.14362 41.2534C3.14362 32.993 9.86397 26.2726 18.1245 26.2726C26.385 26.2726 33.1054 32.993 33.1054 41.2534C33.1054 49.514 26.3849 56.2344 18.1245 56.2344ZM55.8175 48.5824H33.2669C34.3441 46.3658 34.949 43.8791 34.949 41.2534C34.949 32.9313 28.875 26.0023 20.9276 24.6637V2.80457C20.9276 2.78452 20.9466 2.76562 20.9667 2.76562H49.8985V7.32119C49.8985 8.09441 50.5275 8.72347 51.3008 8.72347H55.8563V48.5433C55.8564 48.5633 55.8375 48.5824 55.8175 48.5824ZM38.3922 24.9613C38.5513 24.9613 38.7106 24.9201 38.8531 24.8377L46.855 20.2179C47.1403 20.0532 47.3159 19.7489 47.3159 19.4195V10.1796C47.3159 9.85023 47.1403 9.5459 46.855 9.38123L38.8531 4.76125C38.5679 4.59658 38.2165 4.59658 37.9313 4.76125L29.9292 9.38123C29.6438 9.5459 29.4682 9.85023 29.4682 10.1796V19.4194C29.4682 19.7488 29.6438 20.0531 29.9292 20.2178L37.9311 24.8376C38.0738 24.9201 38.2331 24.9613 38.3922 24.9613ZM35.0746 11.8197L41.2328 8.26426L41.7096 8.53956L35.5513 12.095L35.0746 11.8197ZM34.1527 13.4164L34.6294 13.6917V15.2011L34.1527 14.9258V13.4164ZM43.5533 9.60398L44.5503 10.1796L38.3922 13.735L37.3952 13.1594L43.5533 9.60398ZM39.3141 22.4427V15.3318L45.4722 11.7764V18.8873L39.3141 22.4427ZM38.3922 6.62413L39.3891 7.19973L33.2309 10.7552L32.2338 10.1796L38.3922 6.62413ZM31.312 11.7764L32.309 12.352V15.4582C32.309 15.7876 32.4846 16.0919 32.7699 16.2566L35.0904 17.5963C35.2329 17.6786 35.3921 17.7198 35.5513 17.7198C35.7105 17.7198 35.8697 17.6787 36.0123 17.5963C36.2975 17.4316 36.4732 17.1273 36.4732 16.7979V14.7561L37.4702 15.3317V22.4427L31.312 18.8873V11.7764ZM31.3496 41.1736C31.247 40.7905 31.0018 40.4705 30.6593 40.2729C28.3116 38.9174 25.9747 37.6559 23.7146 36.436C22.6803 35.8776 21.619 35.3045 20.5634 34.726C20.7076 34.5391 20.8539 34.3601 21.0015 34.1888C21.0976 34.2104 21.1953 34.2238 21.2941 34.2238C21.4111 34.2238 21.529 34.2084 21.6452 34.1772C21.9927 34.0841 22.2828 33.8617 22.4621 33.5509L23.1474 32.364C23.3269 32.0532 23.3745 31.6907 23.2813 31.3433C23.1882 30.996 22.9659 30.7059 22.655 30.5264L17.4384 27.5146C17.4383 27.5145 17.4383 27.5145 17.4382 27.5145C16.796 27.144 15.9717 27.3647 15.6009 28.0069L14.9155 29.1942C14.7361 29.5048 14.6886 29.8674 14.7817 30.2146C14.8393 30.4292 14.9464 30.6217 15.0928 30.7799C14.5061 32.4578 13.4276 34.329 12.2678 35.6815C12.0561 35.6327 11.834 35.6361 11.6182 35.6941C11.2708 35.7872 10.9807 36.0095 10.8011 36.3204L10.116 37.5073C9.93645 37.8181 9.88886 38.1806 9.98208 38.528C10.0752 38.8754 10.2975 39.1654 10.6084 39.3449L15.8246 42.3566C16.0315 42.4761 16.2613 42.5372 16.4943 42.5372C16.6114 42.5372 16.7293 42.5217 16.8454 42.4906C17.1929 42.3975 17.4829 42.1752 17.6626 41.8643L18.3476 40.6774C18.5272 40.3667 18.5748 40.0042 18.4817 39.6569C18.4238 39.4408 18.3158 39.2469 18.1676 39.088C18.2423 38.8757 18.324 38.6609 18.4136 38.444C19.4431 39.0694 20.4707 39.7024 21.472 40.3194C23.6587 41.6666 25.9198 43.0597 28.2678 44.4155C28.4958 44.5471 28.7489 44.6143 29.0056 44.6143C29.1346 44.6143 29.2647 44.5973 29.3929 44.563C29.776 44.4603 30.0959 44.215 30.2934 43.8726L31.202 42.299C31.4 41.9564 31.4524 41.5566 31.3496 41.1736ZM13.9261 36.5712C15.0487 35.186 16.0574 33.4365 16.6925 31.7731L19.3403 33.3018C18.2174 34.6835 17.2066 36.4317 16.5682 38.0966L13.9261 36.5712ZM16.9485 29.3606L21.3016 31.8738L21.1148 32.1975L16.7618 29.6841L16.9485 29.3606ZM16.315 40.5108L11.962 37.9975L12.1488 37.6739L16.5018 40.1872L16.315 40.5108ZM28.8774 42.6381C26.663 41.3523 24.5174 40.0302 22.4393 38.7497C21.3869 38.1013 20.3055 37.4356 19.2212 36.7777C19.3185 36.6026 19.4189 36.429 19.522 36.2573C20.6338 36.8674 21.7512 37.4711 22.8389 38.0582C24.9868 39.2177 27.2046 40.4149 29.425 41.6896L28.8774 42.6381ZM17.9374 45.4739H17.5254V44.1474C17.5254 43.6383 17.1127 43.2256 16.6036 43.2256H9.59397C9.08487 43.2256 8.6721 43.6383 8.6721 44.1474V45.4739H8.13511C7.47182 45.4739 6.93229 46.0137 6.93229 46.6768V49.3441C6.93229 50.0073 7.47193 50.5469 8.13511 50.5469H17.9373C18.6006 50.5469 19.1402 50.0072 19.1402 49.3441V46.6768C19.1403 46.0137 18.6007 45.4739 17.9374 45.4739ZM10.5158 45.0693H15.6816V45.4739H10.5158V45.0693ZM17.2966 48.7032H8.77604V47.3178H17.2966V48.7032ZM52.0324 28.8562C52.0324 29.3653 51.6196 29.7781 51.1105 29.7781H33.5313C33.0222 29.7781 32.6094 29.3653 32.6094 28.8562C32.6094 28.3471 33.0222 27.9343 33.5313 27.9343H51.1105C51.6196 27.9343 52.0324 28.3471 52.0324 28.8562ZM52.0324 33.987C52.0324 34.4961 51.6196 34.9089 51.1105 34.9089H36.0725C35.5634 34.9089 35.1507 34.4961 35.1507 33.987C35.1507 33.4779 35.5634 33.0651 36.0725 33.0651H51.1105C51.6196 33.0651 52.0324 33.478 52.0324 33.987ZM52.0324 39.1178C52.0324 39.6269 51.6196 40.0397 51.1105 40.0397H37.3664C36.8573 40.0397 36.4445 39.6269 36.4445 39.1178C36.4445 38.6087 36.8573 38.1959 37.3664 38.1959H51.1105C51.6196 38.1959 52.0324 38.6087 52.0324 39.1178ZM52.0324 44.2486C52.0324 44.7577 51.6196 45.1705 51.1105 45.1705H37.2533C36.7442 45.1705 36.3315 44.7577 36.3315 44.2486C36.3315 43.7395 36.7442 43.3267 37.2533 43.3267H51.1105C51.6196 43.3267 52.0324 43.7395 52.0324 44.2486Z" fill="white"/>
</svg>
