<svg width="48" height="48" viewBox="0 0 48 48" fill="none" xmlns="http://www.w3.org/2000/svg">
<circle cx="24" cy="24" r="24" fill="#D7F4DE"/>
<circle cx="24" cy="24.0003" r="19.6721" fill="#34C759"/>
<path fill-rule="evenodd" clip-rule="evenodd" d="M23.0696 24.2194V19.4423C23.0696 19.1208 22.8073 18.8599 22.484 18.8599C22.1608 18.8599 21.8985 19.1208 21.8985 19.4423V24.2194C21.8985 24.541 22.1608 24.8019 22.484 24.8019C22.8073 24.8019 23.0696 24.541 23.0696 24.2194Z" fill="white"/>
<path fill-rule="evenodd" clip-rule="evenodd" d="M22.1913 23.7153L18.9894 25.5536C18.7099 25.7144 18.6139 26.0708 18.7755 26.3496C18.9363 26.6277 19.2955 26.7232 19.575 26.5624L22.7768 24.7241C23.0563 24.5634 23.1524 24.2069 22.9915 23.9281C22.8299 23.65 22.4708 23.5545 22.1913 23.7153Z" fill="white"/>
<path fill-rule="evenodd" clip-rule="evenodd" d="M25.8006 22.9661C24.4952 25.564 22.2888 29.9535 21.0841 32.3503C20.8116 32.8916 20.8405 33.5354 21.1606 34.0503C21.4807 34.5652 22.0468 34.879 22.655 34.879H32.0888C32.6977 34.879 33.263 34.5652 33.5831 34.0503C33.9032 33.5354 33.9321 32.8916 33.6604 32.3503C32.4557 29.9535 30.2493 25.564 28.9431 22.9661C28.6457 22.3743 28.0375 22 27.3723 22C26.7071 22 26.0981 22.3743 25.8006 22.9661ZM26.8484 23.4873C26.9475 23.29 27.1505 23.165 27.3723 23.165C27.594 23.165 27.797 23.29 27.8961 23.4873C29.2016 26.0851 31.4079 30.4739 32.6126 32.8714C32.7032 33.0516 32.6938 33.2659 32.5869 33.4375C32.4807 33.6092 32.2918 33.714 32.0888 33.714H22.655C22.452 33.714 22.2638 33.6092 22.1569 33.4375C22.0507 33.2659 22.0405 33.0516 22.1319 32.8714L26.8484 23.4873Z" fill="white"/>
<path fill-rule="evenodd" clip-rule="evenodd" d="M22.3755 34.8464C22.6729 34.8495 22.9251 34.6297 22.9618 34.3353C22.9985 34.0418 22.8072 33.7668 22.5176 33.6977C22.37 33.662 22.2396 33.5696 22.1569 33.4375C22.0507 33.2659 22.0405 33.0515 22.1319 32.8714L22.598 31.9433C22.6862 31.767 22.68 31.5581 22.58 31.388C22.4801 31.2187 22.3005 31.11 22.103 31.1006C18.015 30.9034 14.757 27.539 14.757 23.4236C14.757 19.1816 18.2196 15.7372 22.484 15.7372C26.7484 15.7372 30.2111 19.1816 30.2111 23.4236C30.2111 24.4868 29.994 25.4995 29.6005 26.4206C29.5334 26.5783 29.5388 26.7561 29.6161 26.9091L31.0215 29.7058C31.1152 29.8914 31.3002 30.0133 31.5087 30.0265C31.7163 30.0397 31.9162 29.9419 32.0318 29.7695C33.2544 27.9545 33.968 25.7713 33.968 23.4236C33.968 17.1188 28.8221 12 22.484 12C16.1459 12 11 17.1188 11 23.4236C11 29.6926 16.0873 34.7889 22.3755 34.8464ZM20.9553 33.5696C15.9874 32.8349 12.1711 28.5688 12.1711 23.4236C12.1711 17.7619 16.7924 13.165 22.484 13.165C28.1757 13.165 32.7969 17.7619 32.7969 23.4236C32.7969 25.1625 32.3612 26.8012 31.5922 28.2364L30.7818 26.6233C31.169 25.6308 31.3822 24.552 31.3822 23.4236C31.3822 18.5385 27.3949 14.5722 22.484 14.5722C17.5731 14.5722 13.5858 18.5385 13.5858 23.4236C13.5858 27.8652 16.8814 31.5464 21.17 32.1786L21.0841 32.3502C20.8913 32.7331 20.8499 33.1665 20.9553 33.5696Z" fill="white"/>
<path fill-rule="evenodd" clip-rule="evenodd" d="M26.7352 26.4882V30.3769C26.7352 30.6984 26.9975 30.9593 27.3208 30.9593C27.6432 30.9593 27.9063 30.6984 27.9063 30.3769V26.4882C27.9063 26.1667 27.6432 25.9058 27.3208 25.9058C26.9975 25.9058 26.7352 26.1667 26.7352 26.4882Z" fill="white"/>
<path d="M27.3208 32.7011C27.6442 32.7011 27.9063 32.4403 27.9063 32.1186C27.9063 31.7969 27.6442 31.5361 27.3208 31.5361C26.9974 31.5361 26.7352 31.7969 26.7352 32.1186C26.7352 32.4403 26.9974 32.7011 27.3208 32.7011Z" fill="white"/>
</svg>
